<svg xmlns="http://www.w3.org/2000/svg" version="1.1" xmlns:xlink="http://www.w3.org/1999/xlink" width="1500" height="1500" viewBox="0 0 1500 1500"><rect width="1500" height="1500" x="0" y="0" id="background" stroke="transparent" fill="#ffffff"></rect><svg xml:space="preserve" width="1000" height="1000" data-version="2" data-id="lg_hADKj7XtofgvTPnRed" viewBox="0 0 561 153" x="250" y="250"><rect width="100%" height="100%" fill="transparent"></rect><path fill="#ff5630" d="M31.325 111.48q-6.23 0-13.34-2.37-7.11-2.37-12.26-7.93l4.07-15.98q3.79 6.37 9.75 10.09 5.96 3.73 12.73 3.73 6.5 0 9.75-3.19 3.25-3.18 3.25-7.78 0-5.28-3.46-7.72-3.45-2.44-6.16-3.39l-10.97-4.19q-2.98-1.22-7.17-3.59-4.2-2.37-7.32-6.84-3.11-4.47-3.11-11.65 0-6.5 3.11-11.91 3.12-5.42 8.81-8.6 5.68-3.18 13.4-3.18 6.1 0 12.73 2.16 6.64 2.17 11.24 7.31l-4.06 15.98q-3.25-5.95-8.8-9.48-5.56-3.52-11.51-3.52-5.56 0-8.74 3.12-3.18 3.11-3.18 7.18 0 3.25 2.17 5.82 2.16 2.57 6.5 4.2l10.96 4.19q2.98 1.09 7.38 3.52 4.41 2.44 7.79 7.05 3.39 4.6 3.39 12.45 0 10.97-7.65 17.74-7.66 6.78-19.3 6.78"></path><rect width="52.55" height="84.5" x="-26.27" y="-42.25" fill="none" rx="0" ry="0" transform="translate(32.5 69.73)"></rect><path fill="#ff5630" d="M105.255 109.85V40.79h-18.42V28.6h18.83V1.52h13.81V28.6h20.18v12.19h-19.77v69.06Z"></path><rect width="52.82" height="108.33" x="-26.41" y="-54.16" fill="none" rx="0" ry="0" transform="translate(113.75 56.19)"></rect><path fill="#ff5630" d="M203.835 110.93q-11.11 0-20.31-5.62-9.21-5.62-14.7-15.1-5.48-9.47-5.48-20.98 0-11.52 5.48-20.99 5.49-9.48 14.7-15.1 9.2-5.62 20.31-5.62 8.39 0 15.77 3.11 7.38 3.12 12.8 8.67V28.6h13.54v81.25h-13.54v-10.7q-5.42 5.42-12.8 8.6-7.38 3.18-15.77 3.18m1.89-13.27q7.72 0 14.02-3.86t10.02-10.29q3.72-6.43 3.72-14.28 0-7.86-3.72-14.29-3.72-6.43-10.02-10.29-6.3-3.86-14.02-3.86-7.71 0-14.01 3.86t-10.02 10.29q-3.73 6.43-3.73 14.29 0 7.85 3.73 14.28 3.72 6.43 10.02 10.29 6.3 3.86 14.01 3.86"></path><rect width="82.6" height="83.41" x="-41.3" y="-41.7" fill="none" rx="0" ry="0" transform="translate(205.15 69.72)"></rect><path fill="#ff5630" d="m284.945 150.48 26.4-52.55-34.39-69.33h16.52l17.33 35.21q2.3 4.74 4.47 9.34 2.17 4.61 4.33 11.11 2.31-6.5 4.41-11.18 2.09-4.67 4.53-9.27l17.61-35.21h15.57l-60.94 121.88Z"></path><rect width="84.77" height="121.88" x="-42.38" y="-60.94" fill="none" rx="0" ry="0" transform="translate(319.84 90.04)"></rect><path fill="#ff5630" d="m385.145 109.85 38.46-68.25h-36.02v-13h58.5l-38.46 68.25h36.29v13Z"></path><rect width="60.94" height="81.25" x="-30.47" y="-40.63" fill="none" rx="0" ry="0" transform="translate(416.12 69.72)"></rect><path fill="#ff5630" d="m477.495 150.48 26.41-52.55-34.4-69.33h16.52l17.33 35.21q2.31 4.74 4.47 9.34 2.17 4.61 4.34 11.11 2.3-6.5 4.4-11.18 2.1-4.67 4.53-9.27l17.61-35.21h15.57l-60.94 121.88Z"></path><rect width="84.77" height="121.88" x="-42.38" y="-60.94" fill="none" rx="0" ry="0" transform="translate(512.39 90.04)"></rect></svg></svg>